<svg xmlns="http://www.w3.org/2000/svg" xmlns:xlink="http://www.w3.org/1999/xlink" width="500" zoomAndPan="magnify" viewBox="0 0 375 374.999991" height="500" preserveAspectRatio="xMidYMid meet" version="1.0"><defs><clipPath id="d3f209ce15"><path d="M 6.507812 16.757812 L 368.757812 16.757812 L 368.757812 279 L 6.507812 279 Z M 6.507812 16.757812 " clip-rule="nonzero"/></clipPath><clipPath id="0476a4520d"><path d="M 60 292 L 296 292 L 296 358.007812 L 60 358.007812 Z M 60 292 " clip-rule="nonzero"/></clipPath></defs><rect x="-37.5" width="450" fill="#ffffff" y="-37.499999" height="449.999989" fill-opacity="1"/><rect x="-37.5" width="450" fill="#ffffff" y="-37.499999" height="449.999989" fill-opacity="1"/><rect x="-37.5" width="450" fill="#ffffff" y="-37.499999" height="449.999989" fill-opacity="1"/><g clip-path="url(#d3f209ce15)"><path fill="#3d3d3d" d="M 183.78125 229.445312 C 209.636719 230.671875 235.589844 238.316406 261.628906 252.378906 C 262.777344 248.527344 263.453125 242.691406 263.65625 234.875 C 263.902344 225.28125 263.414062 212.746094 262.1875 197.277344 L 262.011719 195.011719 L 264.289062 195.070312 C 288.308594 195.675781 307.621094 193.003906 322.230469 187.054688 C 336.488281 181.25 346.222656 172.296875 351.4375 160.203125 C 353.324219 150.226562 351.976562 141.554688 347.394531 134.1875 C 342.730469 126.679688 334.683594 120.433594 323.257812 115.441406 C 311.109375 111.046875 300.195312 105.574219 290.515625 99.019531 C 280.800781 92.4375 272.34375 84.777344 265.144531 76.035156 L 265.050781 75.917969 C 259.609375 68.183594 253.464844 61.390625 246.625 55.539062 C 239.800781 49.699219 232.277344 44.78125 224.046875 40.796875 C 213.765625 36.980469 204.59375 35.941406 196.539062 37.679688 C 188.542969 39.398438 181.582031 43.894531 175.660156 51.15625 L 175.21875 51.558594 C 167.035156 57.089844 155.621094 62.824219 140.976562 68.757812 C 126.390625 74.667969 108.554688 80.796875 87.46875 87.148438 L 87.375 87.175781 C 68.933594 91.730469 54.898438 98.292969 45.269531 106.859375 C 35.902344 115.191406 30.707031 125.464844 29.679688 137.675781 C 34.308594 151.21875 43.535156 160.949219 57.363281 166.867188 C 71.574219 172.949219 90.648438 175.054688 114.582031 173.183594 C 142.671875 168.558594 168.144531 168.089844 191 171.765625 C 213.976562 175.464844 234.292969 183.347656 251.945312 195.421875 L 249.96875 198.996094 C 233.011719 191.632812 214.96875 187.417969 193.417969 186.910156 C 172.046875 186.410156 147.210938 189.550781 116.574219 196.871094 C 115.714844 200.269531 114.527344 203.9375 113.265625 207.832031 C 109.703125 218.828125 105.527344 231.710938 106.972656 244.84375 C 132.453125 233.359375 158.058594 228.226562 183.78125 229.445312 Z M 83.746094 235.117188 C 84.996094 223.121094 88 211.582031 92.761719 200.503906 C 78.007812 199.601562 64.652344 196.664062 52.703125 191.683594 C 39.898438 186.351562 28.710938 178.683594 19.136719 168.683594 L 19.101562 168.648438 C 2.382812 150.34375 2.320312 128.613281 18.910156 103.460938 L 19.015625 103.308594 C 27.546875 92.578125 40.183594 83.285156 56.921875 75.433594 C 73.507812 67.65625 94.15625 61.28125 118.863281 56.3125 L 119.070312 56.277344 C 126.457031 55.558594 134.507812 52.777344 143.226562 47.945312 C 152.050781 43.050781 161.539062 36.050781 171.695312 26.941406 L 171.945312 26.757812 C 186.417969 17.253906 201.582031 14.523438 217.4375 18.566406 C 233.085938 22.558594 249.34375 33.179688 266.210938 50.421875 L 266.441406 50.714844 C 270.574219 56.855469 274.945312 62.683594 279.5625 68.199219 C 284.074219 73.589844 288.777344 78.636719 293.667969 83.335938 C 312.914062 88.414062 328.734375 95.636719 341.121094 105 C 353.722656 114.519531 362.777344 126.234375 368.28125 140.148438 L 368.417969 140.734375 C 368.675781 143.71875 368.78125 146.652344 368.742188 149.535156 C 368.480469 167.5 362.28125 181.503906 350.140625 191.542969 C 338.15625 201.457031 320.417969 207.410156 296.929688 209.394531 C 290.542969 209.933594 283.683594 210.179688 276.351562 210.132812 L 279.410156 277.292969 L 276.203125 275.527344 C 247.71875 259.855469 217.882812 252.140625 186.691406 252.386719 C 155.457031 252.632812 122.8125 260.863281 88.765625 277.078125 L 86.371094 278.214844 L 85.859375 275.617188 C 83.101562 261.597656 82.394531 248.097656 83.746094 235.121094 Z M 83.746094 235.117188 " fill-opacity="1" fill-rule="evenodd"/></g><g clip-path="url(#0476a4520d)"><path fill="#b9c2c4" d="M 60.421875 307.992188 C 58.703125 324.113281 62.789062 338.65625 71.300781 346.089844 C 74.152344 348.574219 82.207031 353.152344 87.8125 354.933594 C 94.65625 357.105469 101.882812 358.144531 109.589844 357.988281 C 128.601562 357.609375 151.417969 349.550781 164.984375 337.917969 L 177.464844 326.011719 C 178.785156 327.089844 178.1875 326.472656 179.546875 328.074219 C 180.378906 329.050781 180.027344 328.75 180.859375 329.808594 C 193.105469 345.359375 224.023438 357.542969 245.339844 357.988281 C 259.792969 358.289062 272.9375 355.269531 283.273438 345.742188 C 292.957031 336.816406 296.46875 325.59375 294.601562 307.847656 C 292.125 315.109375 292.949219 319.21875 287.539062 323.714844 C 265.738281 341.820312 228.609375 296.980469 208.742188 292.773438 C 189.035156 288.597656 179.832031 305.988281 177.464844 307.914062 C 172.902344 302.644531 172.179688 300.011719 165.929688 296.109375 C 153.222656 288.175781 141.878906 293.085938 130.367188 300.296875 C 124.867188 303.742188 122.320312 306.535156 117.214844 310.429688 C 112.503906 314.015625 108.144531 316.433594 103.265625 319.691406 C 99.121094 322.453125 92.378906 325.570312 87.027344 326.761719 C 79.84375 328.359375 72.058594 327.527344 67.488281 323.601562 C 62.675781 319.472656 62.65625 315.03125 60.421875 307.992188 Z M 60.421875 307.992188 " fill-opacity="1" fill-rule="evenodd"/></g></svg>