<svg xmlns="http://www.w3.org/2000/svg" xmlns:xlink="http://www.w3.org/1999/xlink" width="500" zoomAndPan="magnify" viewBox="0 0 375 374.999991" height="500" preserveAspectRatio="xMidYMid meet" version="1.0"><defs><g/><clipPath id="732d48ce0e"><path d="M 108.851562 57.167969 L 266.351562 57.167969 L 266.351562 171 L 108.851562 171 Z M 108.851562 57.167969 " clip-rule="nonzero"/></clipPath><clipPath id="1308cc2699"><path d="M 132 176 L 235 176 L 235 205.667969 L 132 205.667969 Z M 132 176 " clip-rule="nonzero"/></clipPath></defs><rect x="-37.5" width="450" fill="#ffffff" y="-37.499999" height="449.999989" fill-opacity="1"/><rect x="-37.5" width="450" fill="#ffffff" y="-37.499999" height="449.999989" fill-opacity="1"/><rect x="-37.5" width="450" fill="#ffffff" y="-37.499999" height="449.999989" fill-opacity="1"/><g clip-path="url(#732d48ce0e)"><path fill="#3d3d3d" d="M 185.925781 149.722656 C 197.167969 150.253906 208.449219 153.582031 219.773438 159.703125 C 220.273438 158.027344 220.566406 155.488281 220.652344 152.085938 C 220.761719 147.910156 220.546875 142.457031 220.015625 135.722656 L 219.9375 134.738281 L 220.929688 134.761719 C 231.371094 135.027344 239.769531 133.863281 246.121094 131.273438 C 252.320312 128.75 256.550781 124.851562 258.820312 119.589844 C 259.640625 115.25 259.054688 111.476562 257.0625 108.269531 C 255.035156 105.003906 251.535156 102.285156 246.566406 100.113281 C 241.285156 98.199219 236.539062 95.816406 232.332031 92.964844 C 228.105469 90.101562 224.429688 86.769531 221.300781 82.964844 L 221.257812 82.910156 C 218.894531 79.546875 216.222656 76.589844 213.25 74.042969 C 210.28125 71.503906 207.011719 69.363281 203.433594 67.628906 C 198.960938 65.96875 194.976562 65.515625 191.472656 66.273438 C 187.996094 67.019531 184.96875 68.976562 182.394531 72.136719 L 182.203125 72.3125 C 178.644531 74.71875 173.683594 77.214844 167.316406 79.796875 C 160.972656 82.367188 153.21875 85.035156 144.050781 87.800781 L 144.007812 87.8125 C 135.992188 89.792969 129.890625 92.648438 125.703125 96.378906 C 121.628906 100.003906 119.371094 104.472656 118.925781 109.785156 C 120.9375 115.679688 124.949219 119.914062 130.960938 122.488281 C 137.140625 125.136719 145.433594 126.050781 155.839844 125.238281 C 168.050781 123.226562 179.128906 123.023438 189.0625 124.621094 C 199.054688 126.230469 207.886719 129.664062 215.5625 134.914062 L 214.703125 136.472656 C 207.332031 133.265625 199.484375 131.433594 190.117188 131.214844 C 180.824219 130.996094 170.027344 132.359375 156.703125 135.546875 C 156.332031 137.023438 155.816406 138.621094 155.265625 140.316406 C 153.71875 145.101562 151.902344 150.707031 152.53125 156.421875 C 163.609375 151.425781 174.742188 149.191406 185.925781 149.722656 Z M 142.433594 152.191406 C 142.976562 146.96875 144.28125 141.949219 146.351562 137.128906 C 139.9375 136.734375 134.128906 135.457031 128.933594 133.289062 C 123.367188 130.96875 118.503906 127.632812 114.339844 123.28125 L 114.324219 123.265625 C 107.058594 115.300781 107.027344 105.84375 114.242188 94.898438 L 114.289062 94.832031 C 118 90.160156 123.492188 86.117188 130.769531 82.703125 C 137.980469 79.316406 146.957031 76.542969 157.699219 74.378906 L 157.792969 74.367188 C 161 74.050781 164.503906 72.84375 168.292969 70.738281 C 172.128906 68.609375 176.253906 65.5625 180.671875 61.601562 L 180.777344 61.519531 C 187.070312 57.382812 193.664062 56.195312 200.558594 57.957031 C 207.363281 59.691406 214.429688 64.3125 221.765625 71.816406 L 221.867188 71.945312 C 223.660156 74.617188 225.5625 77.152344 227.570312 79.554688 C 229.53125 81.898438 231.574219 84.09375 233.703125 86.140625 C 242.070312 88.351562 248.949219 91.492188 254.335938 95.566406 C 259.8125 99.710938 263.75 104.808594 266.144531 110.863281 L 266.203125 111.117188 C 266.3125 112.417969 266.359375 113.695312 266.34375 114.949219 C 266.230469 122.765625 263.535156 128.859375 258.257812 133.230469 C 253.042969 137.542969 245.332031 140.132812 235.121094 140.996094 C 232.34375 141.230469 229.363281 141.339844 226.175781 141.316406 L 227.503906 170.542969 L 226.109375 169.777344 C 213.722656 162.957031 200.75 159.597656 187.191406 159.707031 C 173.609375 159.8125 159.417969 163.394531 144.613281 170.449219 L 143.574219 170.945312 L 143.351562 169.8125 C 142.152344 163.714844 141.84375 157.839844 142.433594 152.191406 Z M 142.433594 152.191406 " fill-opacity="1" fill-rule="evenodd"/></g><g clip-path="url(#1308cc2699)"><path fill="#b9c2c4" d="M 132.292969 183.902344 C 131.542969 190.917969 133.320312 197.246094 137.023438 200.480469 C 138.261719 201.5625 141.765625 203.554688 144.199219 204.328125 C 147.175781 205.277344 150.316406 205.726562 153.667969 205.660156 C 161.933594 205.496094 171.855469 201.988281 177.753906 196.925781 L 183.179688 191.746094 C 183.753906 192.214844 183.492188 191.945312 184.085938 192.640625 C 184.445312 193.066406 184.292969 192.933594 184.65625 193.394531 C 189.980469 200.164062 203.421875 205.464844 212.691406 205.660156 C 218.972656 205.789062 224.691406 204.476562 229.183594 200.332031 C 233.394531 196.445312 234.921875 191.5625 234.109375 183.839844 C 233.03125 187 233.390625 188.789062 231.035156 190.746094 C 221.558594 198.625 205.417969 179.113281 196.777344 177.28125 C 188.210938 175.460938 184.207031 183.03125 183.179688 183.871094 C 181.195312 181.578125 180.882812 180.429688 178.164062 178.730469 C 172.640625 175.28125 167.707031 177.417969 162.703125 180.554688 C 160.3125 182.054688 159.203125 183.269531 156.984375 184.964844 C 154.9375 186.523438 153.039062 187.578125 150.917969 188.992188 C 149.117188 190.195312 146.183594 191.550781 143.859375 192.070312 C 140.734375 192.765625 137.351562 192.402344 135.363281 190.695312 C 133.269531 188.898438 133.261719 186.964844 132.292969 183.902344 Z M 132.292969 183.902344 " fill-opacity="1" fill-rule="evenodd"/></g><g fill="#3d3d3d" fill-opacity="1"><g transform="translate(20.584597, 302.822251)"><g><path d="M 23.3125 -3.21875 C 29.4375 -3.21875 33.304688 -6.039062 34.921875 -11.6875 L 39.140625 -11.6875 C 39.140625 -10.164062 38.726562 -8.671875 37.90625 -7.203125 C 37.09375 -5.734375 35.945312 -4.421875 34.46875 -3.265625 C 31.195312 -0.703125 26.988281 0.578125 21.84375 0.578125 C 16.707031 0.578125 12.304688 -1.132812 8.640625 -4.5625 C 4.398438 -8.507812 2.28125 -14.289062 2.28125 -21.90625 C 2.28125 -27.976562 3.914062 -33.097656 7.1875 -37.265625 C 9.5 -40.242188 12.582031 -42.316406 16.4375 -43.484375 C 18.425781 -44.085938 20.609375 -44.390625 22.984375 -44.390625 C 27.671875 -44.390625 31.523438 -43.3125 34.546875 -41.15625 C 37.566406 -39.007812 39.078125 -36.3125 39.078125 -33.0625 C 39.078125 -30.625 38.125 -28.988281 36.21875 -28.15625 C 35.65625 -27.90625 35.039062 -27.78125 34.375 -27.78125 C 32.332031 -27.78125 30.957031 -28.644531 30.25 -30.375 C 30.039062 -30.914062 29.9375 -31.5625 29.9375 -32.3125 C 29.9375 -33.0625 30.148438 -33.800781 30.578125 -34.53125 C 31.003906 -35.257812 31.566406 -35.820312 32.265625 -36.21875 C 30.691406 -39.226562 27.867188 -40.734375 23.796875 -40.734375 C 19.734375 -40.734375 16.425781 -39.191406 13.875 -36.109375 C 11.320312 -33.023438 10.046875 -28.390625 10.046875 -22.203125 C 10.046875 -16.023438 11.335938 -11.316406 13.921875 -8.078125 C 16.515625 -4.835938 19.644531 -3.21875 23.3125 -3.21875 Z M 23.3125 -3.21875 "/></g></g></g><g fill="#3d3d3d" fill-opacity="1"><g transform="translate(62.933278, 302.822251)"><g><path d="M 20.5 -25.8125 C 17.3125 -25.8125 14.722656 -24.820312 12.734375 -22.84375 L 12.734375 -6.28125 C 12.734375 -5.070312 12.925781 -4.3125 13.3125 -4 C 14 -3.476562 15.285156 -3.21875 17.171875 -3.21875 L 17.171875 0 L 2.34375 0 L 2.34375 -3.21875 C 4.007812 -3.21875 5.054688 -3.382812 5.484375 -3.71875 C 5.921875 -4.0625 6.1875 -4.425781 6.28125 -4.8125 C 6.375 -5.207031 6.421875 -5.695312 6.421875 -6.28125 L 6.421875 -37.96875 C 6.421875 -39.363281 6.296875 -40.273438 6.046875 -40.703125 C 5.804688 -41.140625 5.144531 -41.359375 4.0625 -41.359375 L 2.28125 -41.359375 L 2.28125 -44.5625 C 4.101562 -44.5625 5.535156 -44.703125 6.578125 -44.984375 C 7.617188 -45.273438 8.359375 -45.484375 8.796875 -45.609375 C 9.242188 -45.734375 9.71875 -45.796875 10.21875 -45.796875 C 11.25 -45.796875 11.925781 -45.5 12.25 -44.90625 C 12.570312 -44.3125 12.734375 -43.363281 12.734375 -42.0625 L 12.734375 -26.28125 C 14.734375 -28.03125 17.144531 -29.226562 19.96875 -29.875 C 20.882812 -30.09375 21.78125 -30.203125 22.65625 -30.203125 C 28.96875 -30.203125 32.125 -26.015625 32.125 -17.640625 L 32.125 -6.34375 C 32.125 -5.050781 32.304688 -4.207031 32.671875 -3.8125 C 33.046875 -3.414062 34.0625 -3.21875 35.71875 -3.21875 L 35.71875 0 L 21.90625 0 L 21.90625 -3.21875 C 23.675781 -3.21875 24.738281 -3.394531 25.09375 -3.75 C 25.457031 -4.113281 25.664062 -4.488281 25.71875 -4.875 C 25.78125 -5.269531 25.8125 -5.757812 25.8125 -6.34375 L 25.8125 -17.265625 C 25.8125 -19.960938 25.5625 -21.820312 25.0625 -22.84375 C 24.0625 -24.820312 22.539062 -25.8125 20.5 -25.8125 Z M 20.5 -25.8125 "/></g></g></g><g fill="#3d3d3d" fill-opacity="1"><g transform="translate(99.148843, 302.822251)"><g><path d="M 29.875 -13.46875 L 9.609375 -13.46875 C 9.609375 -10.113281 10.398438 -7.519531 11.984375 -5.6875 C 13.578125 -3.863281 15.539062 -2.953125 17.875 -2.953125 C 21.007812 -2.953125 23.257812 -4.242188 24.625 -6.828125 L 28.96875 -6.859375 C 28.519531 -4.773438 27.238281 -3.015625 25.125 -1.578125 C 23.019531 -0.140625 20.175781 0.578125 16.59375 0.578125 C 13.007812 0.578125 9.910156 -0.53125 7.296875 -2.75 C 4.179688 -5.414062 2.625 -9.171875 2.625 -14.015625 C 2.625 -18.867188 3.863281 -22.78125 6.34375 -25.75 C 8.832031 -28.71875 12.394531 -30.203125 17.03125 -30.203125 C 23.125 -30.203125 27.066406 -27.75 28.859375 -22.84375 C 29.578125 -20.875 29.9375 -19.007812 29.9375 -17.25 C 29.9375 -15.5 29.914062 -14.238281 29.875 -13.46875 Z M 23.125 -17.84375 C 23.125 -23.800781 21.101562 -26.78125 17.0625 -26.78125 C 14.78125 -26.78125 13 -25.894531 11.71875 -24.125 C 10.445312 -22.351562 9.753906 -19.898438 9.640625 -16.765625 L 23.09375 -16.765625 C 23.113281 -17.128906 23.125 -17.488281 23.125 -17.84375 Z M 23.125 -17.84375 "/></g></g></g><g fill="#3d3d3d" fill-opacity="1"><g transform="translate(130.545535, 302.822251)"><g><path d="M 3.09375 -3.21875 C 4.789062 -3.21875 5.851562 -3.382812 6.28125 -3.71875 C 6.707031 -4.0625 6.960938 -4.425781 7.046875 -4.8125 C 7.140625 -5.207031 7.1875 -5.695312 7.1875 -6.28125 L 7.1875 -24.234375 C 7.1875 -24.992188 7.09375 -25.492188 6.90625 -25.734375 C 6.71875 -25.984375 6.320312 -26.109375 5.71875 -26.109375 L 2.421875 -26.109375 L 2.421875 -29.609375 L 7.1875 -29.609375 L 7.1875 -32.53125 C 7.1875 -37.070312 8.269531 -40.671875 10.4375 -43.328125 C 12.613281 -45.984375 15.507812 -47.3125 19.125 -47.3125 C 21.601562 -47.3125 23.578125 -46.554688 25.046875 -45.046875 C 26.515625 -43.535156 27.25 -41.796875 27.25 -39.828125 C 27.25 -37.867188 26.519531 -36.554688 25.0625 -35.890625 C 24.570312 -35.679688 24.066406 -35.578125 23.546875 -35.578125 C 22.503906 -35.578125 21.597656 -35.925781 20.828125 -36.625 C 20.066406 -37.320312 19.6875 -38.097656 19.6875 -38.953125 C 19.6875 -40.585938 20.40625 -41.648438 21.84375 -42.140625 C 21.550781 -42.828125 21.128906 -43.332031 20.578125 -43.65625 C 20.035156 -43.988281 19.546875 -44.15625 19.109375 -44.15625 C 18.671875 -44.15625 18.238281 -44.117188 17.8125 -44.046875 C 17.382812 -43.984375 16.96875 -43.828125 16.5625 -43.578125 C 14.550781 -42.390625 13.546875 -38.84375 13.546875 -32.9375 L 13.546875 -29.609375 L 22.375 -29.609375 L 22.375 -26.109375 L 13.546875 -26.109375 L 13.546875 -6.546875 C 13.546875 -5.066406 13.878906 -4.140625 14.546875 -3.765625 C 15.222656 -3.398438 16.945312 -3.21875 19.71875 -3.21875 L 19.71875 0 L 3.09375 0 Z M 3.09375 -3.21875 "/></g></g></g><g fill="#3d3d3d" fill-opacity="1"><g transform="translate(153.151414, 302.822251)"><g/></g></g><g fill="#3d3d3d" fill-opacity="1"><g transform="translate(171.902191, 302.822251)"><g><path d="M 2.109375 -3.21875 C 4.171875 -3.21875 5.453125 -3.394531 5.953125 -3.75 C 6.460938 -4.113281 6.765625 -4.5 6.859375 -4.90625 C 6.960938 -5.3125 7.015625 -5.804688 7.015625 -6.390625 L 7.015625 -37.40625 C 7.015625 -38.613281 6.648438 -39.445312 5.921875 -39.90625 C 5.203125 -40.363281 3.929688 -40.59375 2.109375 -40.59375 L 2.109375 -43.8125 L 33.296875 -43.8125 L 34.4375 -33.203125 L 30.203125 -33.171875 L 29.40625 -36.484375 C 29.019531 -38.054688 28.625 -39.046875 28.21875 -39.453125 C 27.488281 -40.171875 26.269531 -40.53125 24.5625 -40.53125 L 13.578125 -40.53125 L 13.578125 -23.546875 L 18.953125 -23.546875 C 21.148438 -23.546875 22.5 -23.691406 23 -23.984375 C 23.5 -24.273438 23.835938 -24.691406 24.015625 -25.234375 C 24.203125 -25.773438 24.296875 -26.5625 24.296875 -27.59375 L 28.09375 -27.59375 L 28.09375 -16.296875 L 24.296875 -16.296875 C 24.296875 -18.109375 23.941406 -19.234375 23.234375 -19.671875 C 22.523438 -20.109375 21.097656 -20.328125 18.953125 -20.328125 L 13.578125 -20.328125 L 13.578125 -7.859375 C 13.578125 -6.859375 13.648438 -6.054688 13.796875 -5.453125 C 13.941406 -4.859375 14.425781 -4.335938 15.25 -3.890625 C 16.082031 -3.441406 18.582031 -3.21875 22.75 -3.21875 L 22.75 0 L 2.109375 0 Z M 2.109375 -3.21875 "/></g></g></g><g fill="#3d3d3d" fill-opacity="1"><g transform="translate(207.854902, 302.822251)"><g><path d="M 9.84375 -35.59375 C 8.570312 -35.59375 7.492188 -36.015625 6.609375 -36.859375 C 5.722656 -37.710938 5.28125 -38.753906 5.28125 -39.984375 C 5.28125 -41.222656 5.726562 -42.273438 6.625 -43.140625 C 7.519531 -44.015625 8.59375 -44.453125 9.84375 -44.453125 C 11.09375 -44.453125 12.160156 -44.015625 13.046875 -43.140625 C 13.941406 -42.273438 14.390625 -41.222656 14.390625 -39.984375 C 14.390625 -38.753906 13.945312 -37.710938 13.0625 -36.859375 C 12.175781 -36.015625 11.101562 -35.59375 9.84375 -35.59375 Z M 2.390625 -3.21875 C 4.203125 -3.21875 5.335938 -3.382812 5.796875 -3.71875 C 6.253906 -4.0625 6.53125 -4.425781 6.625 -4.8125 C 6.726562 -5.207031 6.78125 -5.695312 6.78125 -6.28125 L 6.78125 -22.375 C 6.78125 -23.769531 6.65625 -24.679688 6.40625 -25.109375 C 6.164062 -25.546875 5.507812 -25.765625 4.4375 -25.765625 L 2.34375 -25.765625 L 2.34375 -28.96875 C 4.25 -28.96875 5.742188 -29.109375 6.828125 -29.390625 C 7.921875 -29.671875 8.691406 -29.875 9.140625 -30 C 9.585938 -30.132812 10.070312 -30.203125 10.59375 -30.203125 C 11.613281 -30.203125 12.28125 -29.90625 12.59375 -29.3125 C 12.914062 -28.71875 13.078125 -27.765625 13.078125 -26.453125 L 13.078125 -6.28125 C 13.078125 -5.050781 13.273438 -4.28125 13.671875 -3.96875 C 14.328125 -3.46875 15.582031 -3.21875 17.4375 -3.21875 L 17.4375 0 L 2.390625 0 Z M 2.390625 -3.21875 "/></g></g></g><g fill="#3d3d3d" fill-opacity="1"><g transform="translate(226.22601, 302.822251)"><g><path d="M 20.5 -25.8125 C 17.3125 -25.8125 14.722656 -24.820312 12.734375 -22.84375 L 12.734375 -6.28125 C 12.734375 -5.070312 12.925781 -4.3125 13.3125 -4 C 14 -3.476562 15.285156 -3.21875 17.171875 -3.21875 L 17.171875 0 L 2.34375 0 L 2.34375 -3.21875 C 4.007812 -3.21875 5.054688 -3.382812 5.484375 -3.71875 C 5.921875 -4.0625 6.1875 -4.425781 6.28125 -4.8125 C 6.375 -5.207031 6.421875 -5.695312 6.421875 -6.28125 L 6.421875 -22.203125 C 6.421875 -23.597656 6.296875 -24.507812 6.046875 -24.9375 C 5.804688 -25.363281 5.144531 -25.578125 4.0625 -25.578125 L 2.28125 -25.578125 L 2.28125 -28.796875 C 4.101562 -28.796875 5.535156 -28.9375 6.578125 -29.21875 C 7.617188 -29.5 8.359375 -29.703125 8.796875 -29.828125 C 9.242188 -29.953125 9.71875 -30.015625 10.21875 -30.015625 C 11.25 -30.015625 11.925781 -29.71875 12.25 -29.125 C 12.570312 -28.53125 12.734375 -27.582031 12.734375 -26.28125 C 14.816406 -28.03125 17.226562 -29.21875 19.96875 -29.84375 C 20.882812 -30.0625 21.78125 -30.171875 22.65625 -30.171875 C 28.96875 -30.171875 32.125 -25.992188 32.125 -17.640625 L 32.125 -6.34375 C 32.125 -5.050781 32.304688 -4.207031 32.671875 -3.8125 C 33.046875 -3.414062 34.0625 -3.21875 35.71875 -3.21875 L 35.71875 0 L 21.90625 0 L 21.90625 -3.21875 C 23.675781 -3.21875 24.738281 -3.394531 25.09375 -3.75 C 25.457031 -4.113281 25.664062 -4.488281 25.71875 -4.875 C 25.78125 -5.269531 25.8125 -5.757812 25.8125 -6.34375 L 25.8125 -17.265625 C 25.8125 -19.960938 25.5625 -21.820312 25.0625 -22.84375 C 24.0625 -24.820312 22.539062 -25.8125 20.5 -25.8125 Z M 20.5 -25.8125 "/></g></g></g><g fill="#3d3d3d" fill-opacity="1"><g transform="translate(262.441569, 302.822251)"><g><path d="M 25.03125 -4.609375 C 22.707031 -1.148438 19.550781 0.578125 15.5625 0.578125 C 11.570312 0.578125 8.40625 -0.734375 6.0625 -3.359375 C 3.71875 -5.984375 2.546875 -9.515625 2.546875 -13.953125 C 2.546875 -19.410156 3.742188 -23.484375 6.140625 -26.171875 C 8.546875 -28.859375 11.84375 -30.203125 16.03125 -30.203125 C 19.207031 -30.203125 21.925781 -29.109375 24.1875 -26.921875 L 24.1875 -37.703125 C 24.1875 -39.085938 24.039062 -40 23.75 -40.4375 C 23.46875 -40.875 22.785156 -41.09375 21.703125 -41.09375 L 19.625 -41.09375 L 19.625 -44.296875 C 21.550781 -44.296875 23.054688 -44.4375 24.140625 -44.71875 C 25.234375 -45.007812 26.015625 -45.21875 26.484375 -45.34375 C 26.953125 -45.46875 27.453125 -45.53125 27.984375 -45.53125 C 29.015625 -45.53125 29.6875 -45.234375 30 -44.640625 C 30.320312 -44.046875 30.484375 -43.097656 30.484375 -41.796875 L 30.484375 -7.765625 C 30.484375 -5.878906 30.5625 -4.710938 30.71875 -4.265625 C 31.050781 -3.410156 31.851562 -2.984375 33.125 -2.984375 C 33.757812 -2.984375 34.3125 -3.085938 34.78125 -3.296875 L 34.78125 -0.46875 C 33.84375 0.226562 32.578125 0.578125 30.984375 0.578125 C 27.796875 0.578125 25.8125 -1.148438 25.03125 -4.609375 Z M 13.265625 -3.90625 C 14.191406 -3.25 15.316406 -2.921875 16.640625 -2.921875 C 19.210938 -2.921875 21.132812 -3.992188 22.40625 -6.140625 C 23.6875 -8.296875 24.328125 -11.269531 24.328125 -15.0625 C 24.328125 -20.71875 22.835938 -24.34375 19.859375 -25.9375 C 18.898438 -26.4375 17.847656 -26.6875 16.703125 -26.6875 C 14.410156 -26.6875 12.609375 -25.628906 11.296875 -23.515625 C 9.992188 -21.410156 9.34375 -18.59375 9.34375 -15.0625 C 9.34375 -9.4375 10.648438 -5.71875 13.265625 -3.90625 Z M 13.265625 -3.90625 "/></g></g></g><g fill="#3d3d3d" fill-opacity="1"><g transform="translate(296.817192, 302.822251)"><g><path d="M 29.875 -13.46875 L 9.609375 -13.46875 C 9.609375 -10.113281 10.398438 -7.519531 11.984375 -5.6875 C 13.578125 -3.863281 15.539062 -2.953125 17.875 -2.953125 C 21.007812 -2.953125 23.257812 -4.242188 24.625 -6.828125 L 28.96875 -6.859375 C 28.519531 -4.773438 27.238281 -3.015625 25.125 -1.578125 C 23.019531 -0.140625 20.175781 0.578125 16.59375 0.578125 C 13.007812 0.578125 9.910156 -0.53125 7.296875 -2.75 C 4.179688 -5.414062 2.625 -9.171875 2.625 -14.015625 C 2.625 -18.867188 3.863281 -22.78125 6.34375 -25.75 C 8.832031 -28.71875 12.394531 -30.203125 17.03125 -30.203125 C 23.125 -30.203125 27.066406 -27.75 28.859375 -22.84375 C 29.578125 -20.875 29.9375 -19.007812 29.9375 -17.25 C 29.9375 -15.5 29.914062 -14.238281 29.875 -13.46875 Z M 23.125 -17.84375 C 23.125 -23.800781 21.101562 -26.78125 17.0625 -26.78125 C 14.78125 -26.78125 13 -25.894531 11.71875 -24.125 C 10.445312 -22.351562 9.753906 -19.898438 9.640625 -16.765625 L 23.09375 -16.765625 C 23.113281 -17.128906 23.125 -17.488281 23.125 -17.84375 Z M 23.125 -17.84375 "/></g></g></g><g fill="#3d3d3d" fill-opacity="1"><g transform="translate(328.213873, 302.822251)"><g><path d="M 2.390625 -3.21875 C 4.066406 -3.21875 5.117188 -3.382812 5.546875 -3.71875 C 5.972656 -4.0625 6.226562 -4.425781 6.3125 -4.8125 C 6.40625 -5.207031 6.453125 -5.695312 6.453125 -6.28125 L 6.453125 -22.375 C 6.453125 -23.769531 6.328125 -24.679688 6.078125 -25.109375 C 5.835938 -25.546875 5.1875 -25.765625 4.125 -25.765625 L 2.34375 -25.765625 L 2.34375 -28.96875 C 4.1875 -28.96875 5.617188 -29.109375 6.640625 -29.390625 C 7.660156 -29.671875 8.390625 -29.875 8.828125 -30 C 9.265625 -30.132812 9.738281 -30.203125 10.25 -30.203125 C 11.238281 -30.203125 11.90625 -29.910156 12.25 -29.328125 C 12.59375 -28.742188 12.765625 -27.785156 12.765625 -26.453125 L 12.765625 -25.875 C 14.441406 -27.84375 16.335938 -29.164062 18.453125 -29.84375 C 19.210938 -30.082031 19.972656 -30.203125 20.734375 -30.203125 C 22.191406 -30.203125 23.320312 -29.78125 24.125 -28.9375 C 24.9375 -28.101562 25.34375 -27.070312 25.34375 -25.84375 C 25.34375 -24.613281 24.953125 -23.609375 24.171875 -22.828125 C 23.398438 -22.054688 22.457031 -21.671875 21.34375 -21.671875 C 20.257812 -21.671875 19.359375 -22.054688 18.640625 -22.828125 C 17.929688 -23.609375 17.617188 -24.585938 17.703125 -25.765625 C 16.898438 -25.640625 16.046875 -25.269531 15.140625 -24.65625 C 14.234375 -24.050781 13.441406 -23.222656 12.765625 -22.171875 L 12.765625 -6.546875 C 12.765625 -5.804688 12.828125 -5.21875 12.953125 -4.78125 C 13.078125 -4.34375 13.414062 -3.972656 13.96875 -3.671875 C 14.53125 -3.367188 16.203125 -3.21875 18.984375 -3.21875 L 18.984375 0 L 2.390625 0 Z M 2.390625 -3.21875 "/></g></g></g><g fill="#947f57" fill-opacity="1"><g transform="translate(168.670492, 241.480741)"><g><path d="M 10.8125 -14.03125 C 11.03125 -14.03125 11.140625 -13.914062 11.140625 -13.6875 L 11.140625 -11.921875 C 11.140625 -11.703125 11.03125 -11.59375 10.8125 -11.59375 L 7.34375 -11.59375 C 7.257812 -11.59375 7.21875 -11.550781 7.21875 -11.46875 L 7.21875 -0.34375 C 7.21875 -0.113281 7.101562 0 6.875 0 L 4.734375 0 C 4.503906 0 4.390625 -0.113281 4.390625 -0.34375 L 4.390625 -11.46875 C 4.390625 -11.550781 4.347656 -11.59375 4.265625 -11.59375 L 0.90625 -11.59375 C 0.675781 -11.59375 0.5625 -11.703125 0.5625 -11.921875 L 0.5625 -13.6875 C 0.5625 -13.914062 0.675781 -14.03125 0.90625 -14.03125 Z M 10.8125 -14.03125 "/></g></g></g><g fill="#947f57" fill-opacity="1"><g transform="translate(182.393461, 241.480741)"><g><path d="M 6.421875 -10.46875 C 7.484375 -10.46875 8.34375 -10.140625 9 -9.484375 C 9.65625 -8.828125 9.984375 -7.9375 9.984375 -6.8125 L 9.984375 -0.34375 C 9.984375 -0.113281 9.867188 0 9.640625 0 L 7.5 0 C 7.269531 0 7.15625 -0.113281 7.15625 -0.34375 L 7.15625 -6.234375 C 7.15625 -6.765625 7.007812 -7.195312 6.71875 -7.53125 C 6.425781 -7.863281 6.03125 -8.03125 5.53125 -8.03125 C 5.039062 -8.03125 4.640625 -7.863281 4.328125 -7.53125 C 4.023438 -7.195312 3.875 -6.765625 3.875 -6.234375 L 3.875 -0.34375 C 3.875 -0.113281 3.757812 0 3.53125 0 L 1.390625 0 C 1.160156 0 1.046875 -0.113281 1.046875 -0.34375 L 1.046875 -13.6875 C 1.046875 -13.914062 1.160156 -14.03125 1.390625 -14.03125 L 3.53125 -14.03125 C 3.757812 -14.03125 3.875 -13.914062 3.875 -13.6875 L 3.875 -9.40625 C 3.875 -9.351562 3.882812 -9.316406 3.90625 -9.296875 C 3.9375 -9.285156 3.960938 -9.300781 3.984375 -9.34375 C 4.535156 -10.09375 5.347656 -10.46875 6.421875 -10.46875 Z M 6.421875 -10.46875 "/></g></g></g><g fill="#947f57" fill-opacity="1"><g transform="translate(195.355242, 241.480741)"><g><path d="M 6.015625 -2.21875 C 6.898438 -2.257812 7.570312 -2.566406 8.03125 -3.140625 C 8.113281 -3.234375 8.203125 -3.28125 8.296875 -3.28125 C 8.378906 -3.28125 8.453125 -3.25 8.515625 -3.1875 L 9.65625 -2.078125 C 9.738281 -2.003906 9.78125 -1.925781 9.78125 -1.84375 C 9.78125 -1.75 9.753906 -1.671875 9.703125 -1.609375 C 9.265625 -1.054688 8.695312 -0.625 8 -0.3125 C 7.3125 0 6.5625 0.15625 5.75 0.15625 C 4.519531 0.15625 3.5 -0.15625 2.6875 -0.78125 C 1.882812 -1.40625 1.34375 -2.269531 1.0625 -3.375 C 0.90625 -3.957031 0.828125 -4.578125 0.828125 -5.234375 C 0.828125 -6.003906 0.898438 -6.660156 1.046875 -7.203125 C 1.304688 -8.191406 1.84375 -8.984375 2.65625 -9.578125 C 3.46875 -10.179688 4.425781 -10.484375 5.53125 -10.484375 C 6.84375 -10.484375 7.878906 -10.09375 8.640625 -9.3125 C 9.410156 -8.539062 9.910156 -7.453125 10.140625 -6.046875 C 10.191406 -5.609375 10.234375 -5.125 10.265625 -4.59375 C 10.265625 -4.363281 10.148438 -4.25 9.921875 -4.25 L 3.765625 -4.25 C 3.691406 -4.25 3.65625 -4.207031 3.65625 -4.125 C 3.6875 -3.84375 3.726562 -3.640625 3.78125 -3.515625 C 3.914062 -3.097656 4.179688 -2.773438 4.578125 -2.546875 C 4.972656 -2.328125 5.453125 -2.21875 6.015625 -2.21875 Z M 5.5 -8.03125 C 5.0625 -8.03125 4.695312 -7.925781 4.40625 -7.71875 C 4.125 -7.519531 3.929688 -7.234375 3.828125 -6.859375 C 3.765625 -6.597656 3.722656 -6.429688 3.703125 -6.359375 C 3.691406 -6.273438 3.726562 -6.234375 3.8125 -6.234375 L 7.21875 -6.234375 C 7.28125 -6.234375 7.3125 -6.257812 7.3125 -6.3125 C 7.3125 -6.457031 7.285156 -6.613281 7.234375 -6.78125 C 7.117188 -7.164062 6.910156 -7.46875 6.609375 -7.6875 C 6.316406 -7.914062 5.945312 -8.03125 5.5 -8.03125 Z M 5.5 -8.03125 "/></g></g></g></svg>